<svg xmlns="http://www.w3.org/2000/svg" xmlns:xlink="http://www.w3.org/1999/xlink" id="Layer_1" viewBox="0 0 472 184"><defs><style>      .st0 {        fill: #010101;      }      .st1 {        fill: url(#linear-gradient);      }    </style><linearGradient id="linear-gradient" x1="417" y1="119" x2="449.3" y2="100.4" gradientUnits="userSpaceOnUse"><stop offset="0" stop-color="#fbac18"></stop><stop offset="1" stop-color="#ed1c28"></stop></linearGradient></defs><path class="st1" d="M419.5,123.3v-27.2h27.3v27.2h-27.3Z"></path><g><path class="st0" d="M115,114.7c-9.4,9.7-21.4,14.5-36.2,14.5s-26.8-4.8-36.2-14.5c-9.4-9.7-14-21.8-14-36.3s4.7-26.6,14-36.3c9.4-9.7,21.4-14.5,36.2-14.5s26.8,4.8,36.2,14.5c9.4,9.7,14.1,21.8,14.1,36.3s-4.7,26.6-14.1,36.3ZM78.8,109.7c7.6,0,13.6-2.8,17.9-8.5,4.3-5.7,6.5-13.3,6.5-22.8s-2.1-17.1-6.5-22.9c-4.3-5.7-10.3-8.6-17.9-8.6s-13.7,2.8-18,8.5c-4.2,5.7-6.4,13.3-6.4,22.9s2.1,17.1,6.4,22.8c4.2,5.7,10.2,8.5,18,8.5Z"></path><path class="st0" d="M134.7,156.6V29.1h24.5v20.2h.6c1.8-10.5,5.2-22.9,28.3-22.9s22.7,4.7,30.3,14.1c7.6,9.4,11.4,21.6,11.4,36.7s-3.8,27.8-11.4,37c-7.6,9.2-17.7,13.8-30.2,13.8s-21.7-4.6-27.7-13.7h-.4v42.3h-25.5ZM182.8,106.8c6.5,0,11.6-2.6,15.4-7.7,3.8-5.1,5.7-12.2,5.7-21.2s-1.8-17.2-5.4-22.7c-3.6-5.5-9.2-8.2-16.7-8.2s-13.2,2.8-16.9,8.5c-3.6,5.7-5.4,13.1-5.4,22.4s2,15.9,6,21.1c4,5.2,9.7,7.8,17.2,7.8Z"></path><path class="st0" d="M322.1,125.2l-19.1-8.4-5.4-2.8h-.6c-3.5,4.7-7.3,8.2-11.5,10.5-4.2,2.2-9.5,3.4-16,3.4-10.5,0-18.7-3.1-24.5-9.4-5.9-6.3-8.8-14.7-8.8-25.3V29.1h25.3v59.8c0,11.6,5.3,17.4,15.9,17.4s10.5-2,14-6c3.5-4,5.3-9.2,5.3-15.7V29.1h25.5v96.1Z"></path><g><path class="st0" d="M328.3,94.1c.8,10.5,5,18.8,12.7,24.8,7.7,6.1,18.5,9.1,32.2,9.1s21.9-2.8,29.3-8.3c7.4-5.6,11.1-13.1,11.1-22.6s-.7-8.2-2.2-11.5c-1.4-3.3-3.1-5.9-5-7.9-1.9-1.9-4.6-3.7-8-5.2-3.4-1.6-6.3-2.7-8.9-3.4-2.6-.7-5.8-1.5-9.8-2.3-1.4-.2-3.2-.6-5.6-1-2.4-.4-4.3-.8-5.6-1.1-1.4-.3-3-.7-4.9-1.1-1.9-.4-3.3-.9-4.3-1.3-1-.4-2-1-3.1-1.7-1.1-.7-1.8-1.5-2.3-2.4-.4-.9-.7-2-.7-3.1,0-3.4,1.5-6,4.4-7.9,2.9-1.9,7-2.8,12.1-2.8,11.4,0,17.5,4.7,18.6,14h23c-1-9.9-5-17.6-12.1-23.3-7.1-5.7-16.8-8.5-29.1-8.5s-20.9,2.6-28.2,7.9c-7.3,5.2-11,12.9-11,22.9s.9,9.3,2.7,12.8c1.8,3.6,4.5,6.4,8.1,8.4,3.6,2.1,7.1,3.6,10.4,4.7,3.3,1.1,7.6,2.1,12.8,3.1,1,.3,2.8.6,5.3,1,2.6.4,4.4.8,5.4,1,1.1.3,2.6.6,4.6,1.1,2,.5,3.4,1,4.2,1.5.8.5,1.8,1.2,2.8,2,1.1.8,1.8,1.7,2.2,2.7.4,1,.7,2.1.7,3.4,0,3.4-1.5,6.1-4.6,8-3.1,2-7.4,3-13,3-12.4,0-19.4-5.3-21-15.9"></path><polyline class="st0" points="351.9 94.1 328.1 88.5 328.3 94.1"></polyline></g></g></svg>